<?xml version="1.0" standalone="no"?><!DOCTYPE svg PUBLIC "-//W3C//DTD SVG 1.1//EN" "http://www.w3.org/Graphics/SVG/1.1/DTD/svg11.dtd"><svg t="1714897771765" class="icon" viewBox="0 0 1024 1024" version="1.1" xmlns="http://www.w3.org/2000/svg" p-id="4620" xmlns:xlink="http://www.w3.org/1999/xlink" width="200" height="200"><path d="M470.2 98.2H78.8c-6.6 0-12 5.4-12 12V628c0 6.6 5.4 12 12 12h391.4c6.6 0 12-5.4 12-12V110.2c0-6.6-5.4-12-12-12zM470.2 703.9H78.8c-6.6 0-12 5.4-12 12v198.5c0 6.6 5.4 12 12 12h391.4c6.6 0 12-5.4 12-12V715.9c0-6.6-5.4-12-12-12zM945.7 384H554.3c-6.6 0-12 5.4-12 12v517.7c0 6.6 5.4 12 12 12h391.4c6.6 0 12-5.4 12-12V396c0-6.6-5.4-12-12-12zM945.7 97.9H554.3c-6.6 0-12 5.4-12 12v198.5c0 6.6 5.4 12 12 12h391.4c6.6 0 12-5.4 12-12V109.9c0-6.6-5.4-12-12-12z" fill="#2c2c2c" p-id="4621"></path></svg>