<?xml version="1.0" standalone="no"?><!DOCTYPE svg PUBLIC "-//W3C//DTD SVG 1.1//EN" "http://www.w3.org/Graphics/SVG/1.1/DTD/svg11.dtd"><svg t="1716110060179" class="icon" viewBox="0 0 1024 1024" version="1.1" xmlns="http://www.w3.org/2000/svg" p-id="1478" data-spm-anchor-id="a313x.search_index.0.i3.4f743a81yosGZ5" xmlns:xlink="http://www.w3.org/1999/xlink" width="200" height="200"><path d="M817.43 581.49c-0.07-0.07-0.12-0.15-0.19-0.21l-295-307.39a11.19 11.19 0 0 0-16.15 0L208.56 581.24a12.22 12.22 0 0 0-1.27 1.56 10.28 10.28 0 0 0-2.36 6.56v328.9a10.27 10.27 0 0 0 10.2 10.28H423a9.12 9.12 0 0 0 9.12-9.12v-193.3a10.28 10.28 0 0 1 10.2-10.29h151.54a10.28 10.28 0 0 1 10.2 10.29v193.63a8.79 8.79 0 0 0 8.79 8.79h198a10.27 10.27 0 0 0 10.2-10.28v-328.9a10.31 10.31 0 0 0-3.62-7.87z" fill="#333333" p-id="1479" data-spm-anchor-id="a313x.search_index.0.i2.4f743a81yosGZ5" class="selected"></path><path d="M862.84 535.87a39.71 39.71 0 0 1-28.28-11.81L511.34 198 196.6 515.52a39.77 39.77 0 0 1-56.57 0 40.6 40.6 0 0 1 0-57.06l343-346a39.75 39.75 0 0 1 56.57 0L891.12 467a40.59 40.59 0 0 1 0 57.07 39.71 39.71 0 0 1-28.28 11.8z" fill="#333333" p-id="1480"></path></svg>