<?xml version="1.0" standalone="no"?><!DOCTYPE svg PUBLIC "-//W3C//DTD SVG 1.1//EN" "http://www.w3.org/Graphics/SVG/1.1/DTD/svg11.dtd"><svg t="1714899128456" class="icon" viewBox="0 0 1024 1024" version="1.1" xmlns="http://www.w3.org/2000/svg" p-id="6725" xmlns:xlink="http://www.w3.org/1999/xlink" width="200" height="200"><path d="M474.4 849.6c-48.6 0-96-9.2-140.8-27.4-46.4-18.8-88.1-46.5-123.8-82.2s-63.4-77.4-82.2-123.8c-18.2-44.9-27.4-92.2-27.4-140.8 0-48.6 9.2-96 27.4-140.8 18.8-46.4 46.5-88.1 82.2-123.8s77.4-63.4 123.8-82.2c44.9-18.2 92.2-27.4 140.8-27.4 48.6 0 96 9.2 140.8 27.4 46.4 18.8 88.1 46.5 123.8 82.2s63.4 77.4 82.2 123.8c18.2 44.9 27.4 92.2 27.4 140.8 0 48.6-9.2 96-27.4 140.8-18.8 46.4-46.5 88.1-82.2 123.8s-77.4 63.4-123.8 82.2c-44.8 18.2-92.2 27.4-140.8 27.4z m0-700.5c-87.1 0-169 33.9-230.7 95.5s-95.5 143.5-95.5 230.7 33.9 169 95.5 230.7c127.2 127.2 334.1 127.2 461.3 0s127.2-334.1 0-461.3c-61.6-61.7-143.5-95.6-230.6-95.6z" fill="#333333" p-id="6726"></path><path d="M906 930.4c-6 0-12-2.3-16.6-6.9L723.9 758.1c-9.2-9.2-9.2-24.1 0-33.3 9.2-9.2 24.1-9.2 33.3 0l165.4 165.4c9.2 9.2 9.2 24.1 0 33.3-4.6 4.6-10.6 6.9-16.6 6.9z" fill="#333333" p-id="6727"></path></svg>