<?xml version="1.0" standalone="no"?><!DOCTYPE svg PUBLIC "-//W3C//DTD SVG 1.1//EN" "http://www.w3.org/Graphics/SVG/1.1/DTD/svg11.dtd"><svg t="1716132093314" class="icon" viewBox="0 0 1024 1024" version="1.1" xmlns="http://www.w3.org/2000/svg" p-id="4621" xmlns:xlink="http://www.w3.org/1999/xlink" width="200" height="200"><path d="M512 1024C250.402471 1024 37.633107 836.909697 37.633107 606.936628c0-65.842125 25.552563-115.429277 50.282891-163.371958 27.386782-53.192341 55.722298-108.218901 55.089808-193.541693l-0.252996-40.732304 39.530575 9.803583c109.863372 27.260284 164.510439 90.12971 184.117603 155.149598 46.108462-81.844101 46.045213-178.235454 45.918716-309.982952V0l41.49129 13.598518c291.324521 95.632366 298.977641 333.005559 294.992959 476.26436 24.540581-46.171711 35.67239-99.49055 38.328845-123.588388l4.743669-43.135762 39.530574 17.772946c106.51118 47.689685 154.959852 171.341322 154.959852 266.088202C986.366893 836.909697 773.597529 1024 512 1024zM204.483755 292.336504c-7.273626 77.22693-35.229648 131.494503-60.339468 180.19617-23.212353 45.03323-43.262261 83.931316-43.262261 134.403954C100.882026 801.996294 285.315874 960.751081 512 960.751081s411.117974-158.754787 411.117974-353.814453c0-64.450649-28.019271-142.120321-82.033848-186.268067-12.776282 52.876096-42.250278 136.680914-106.447931 182.346634l-44.210994 31.497961-5.565905-54.014577c-1.897468-18.405435-1.138481-42.12378-0.189747-69.510562 4.237678-124.03113 11.13181-326.870414-209.164175-421.743792-0.063249 162.802718-5.123162 283.038913-111.1916 391.574058L296.574182 550.139098l13.851513-95.94861c2.90945-20.302903 9.993329-115.998518-105.94194-161.853984z" p-id="4622" fill="#8a8a8a"></path></svg>